# xmcd
# Copyright (C) 1995-1998 Ti Kan
#
# Track frame offsets:
#       150
#       30642
#       54770
#       73795
#       87422
#       101605
#       113475
#       135190
#       149155
#       162292
#       184437
#
# Disc length: 2716 seconds
#
# Revision: 0
# Processed by: cddbd v1.5.2PL0 Copyright (c) Steve Scherf et al.
# Submitted via: CD-Import v1.0
#
DISCID=950a9a0b
DTITLE=Wu-Tang Clan - Wu-Tang Forever
DYEAR=1997
DGENRE=
TTITLE0=Wu-Revolution
TTITLE1=Reunited (Feat. Roxanne)
TTITLE2=For Heaven's Sake (Feat. Cappadonna)
TTITLE3=Cash Still Rules/Scary Hours (Still Don't Nothing Move But The Money)
TTITLE4=Visionz
TTITLE5=As High As Wu-Tang Get
TTITLE6=Severe Punishment
TTITLE7=Older Gods
TTITLE8=Maria
TTITLE9=A Better Tomorrow
TTITLE10=It's Yourz
EXTD=
EXTT0=
EXTT1=
EXTT2=
EXTT3=
EXTT4=
EXTT5=
EXTT6=
EXTT7=
EXTT8=
EXTT9=
EXTT10=
PLAYORDER=
